# Blender 4.0.2
# www.blender.org
mtllib camera_arm.mtl
o Cylinder
v -0.102122 1.000191 -0.164006
v 0.293652 -1.002638 -0.099067
v 0.143944 1.000034 -0.110882
v 0.219016 -1.012163 0.213071
v 0.132156 1.000191 0.140932
v -0.177832 -0.992108 0.276200
v -0.149825 1.000126 0.115173
v -0.267895 -1.004751 -0.167062
v 0.050527 -1.001348 -0.300702
v 0.144040 -2.653041 0.048593
v -0.036608 -2.653216 0.157430
v -0.150874 -2.653091 -0.034976
v 0.053095 -2.653372 -0.156620
vn 0.6379 0.0432 -0.7689
vn 0.9710 0.0503 0.2337
vn 0.1590 0.0422 0.9864
vn 0.0002 1.0000 -0.0002
vn -0.9797 0.0298 0.1982
vn -0.3871 0.0334 -0.9214
vn 0.6368 -0.0660 -0.7682
vn -0.3850 -0.0808 -0.9194
vn 0.9708 -0.0674 0.2301
vn -0.9783 -0.0534 0.2003
vn 0.2104 0.0826 -0.9741
vn 0.9961 0.0747 0.0466
vn -0.0907 0.0815 0.9925
vn -0.9824 0.0815 -0.1678
vn -0.0000 -1.0000 0.0005
vn 0.5131 -0.1088 0.8514
vn -0.8547 -0.1090 0.5075
vn 0.1540 -0.0574 0.9864
vn -0.5095 -0.1046 -0.8541
vn 0.9079 -0.1183 -0.4022
vt 0.854468 1.000000
vt 0.801418 0.500000
vt 0.965619 0.500000
vt 0.618702 1.000000
vt 0.627364 0.500000
vt 0.407956 0.500000
vt 0.078224 0.118268
vt 0.392522 0.095419
vt 0.429829 0.388435
vt 0.139844 0.429467
vt 0.354188 1.000000
vt 0.160747 0.500000
vt 0.092093 1.000000
vt 0.018433 0.500000
vt 0.901749 0.500000
vt 0.016010 0.500000
vt 0.698795 0.500000
vt 0.213102 0.500000
vt 0.981567 1.000000
vt 0.820116 0.442026
vt 0.964985 0.178236
vt 0.703600 0.044795
vt 0.534022 0.301085
vt 0.464619 0.500000
s 0
f 3/1/1 2/2/1 9/3/1
f 5/4/2 4/5/2 2/2/2
f 5/4/3 6/6/3 4/5/3
f 7/7/4 5/8/4 3/9/4 1/10/4
f 7/11/5 8/12/5 6/6/5
f 1/13/6 9/14/6 8/12/6
f 2/2/7 13/15/7 9/3/7
f 9/14/8 13/16/8 8/12/8
f 4/5/9 10/17/9 2/2/9
f 8/12/10 12/18/10 6/6/10
f 1/19/11 3/1/11 9/3/11
f 3/1/12 5/4/12 2/2/12
f 5/4/13 7/11/13 6/6/13
f 7/11/14 1/13/14 8/12/14
f 13/20/15 10/21/15 11/22/15 12/23/15
f 4/5/16 11/24/16 10/17/16
f 6/6/17 12/18/17 11/24/17
f 4/5/18 6/6/18 11/24/18
f 8/12/19 13/16/19 12/18/19
f 2/2/20 10/17/20 13/15/20
